<svg viewBox="0 0 2048 2048" preserveAspectRatio="xMidYMid meet" aria-label="Soberi Party" class="hero-logo-svg">
  <defs>
    <mask id="m0" maskUnits="userSpaceOnUse" x="0" y="0" width="2048" height="2048">
      <rect width="2048" height="2048" fill="black"/>
    </mask>
    <mask id="m1" maskUnits="userSpaceOnUse" x="0" y="0" width="2048" height="2048">
      <rect width="2048" height="2048" fill="black"/>
      <path d="M 877 527.677 C 836.827 534.724, 774.425 570.644, 717.500 619.487 C 699.560 634.880, 666.719 667.650, 651.843 685 C 638.564 700.487, 621.222 723.288, 612.494 736.734 C 606.500 745.969, 606.500 745.969, 596.379 745.984 C 583.430 746.004, 559.348 743.561, 546.500 740.924 C 519.960 735.476, 502.209 726.386, 487.250 710.582 C 471.256 693.686, 463.977 669.535, 466.964 643.279 C 469.231 623.355, 477.417 606.898, 493 590.941 C 512.954 570.507, 543.114 556.089, 575.500 551.501 C 582.960 550.445, 612.155 550.737, 623 551.977 C 648.854 554.934, 683.140 564.674, 708.230 576.189 C 713.774 578.733, 715.228 579.055, 716.480 578.016 C 719.235 575.730, 718.092 574.471, 709.750 570.603 C 653.434 544.495, 601.804 537.535, 553.788 549.579 C 504.654 561.904, 467.586 591.827, 456.022 628.500 C 453.207 637.430, 452.145 658.399, 453.944 669.550 C 456.933 688.080, 463.728 700.944, 477.951 715 C 500.517 737.300, 533.076 748.720, 583.791 752.124 C 593.531 752.778, 601.643 753.423, 601.817 753.557 C 601.992 753.692, 597.672 759.584, 592.218 766.651 C 586.764 773.718, 577.653 786.025, 571.972 794 C 510.930 879.690, 475.431 916.225, 435.319 934.641 C 415.804 943.600, 403.528 946.181, 380.500 946.166 C 367.070 946.157, 361.532 945.722, 354.129 944.095 C 337.504 940.442, 328 934.722, 328 928.370 C 328 924.187, 331.006 922, 336.755 922 C 344.218 922, 350.958 917.759, 354.685 910.718 C 357.321 905.737, 357.083 893.662, 354.242 888.308 C 349.900 880.123, 342.087 876.461, 330.613 877.233 C 319.001 878.015, 312.220 883.785, 308.605 895.960 C 303.494 913.168, 310.329 930.181, 326.500 940.506 C 338.836 948.382, 352.913 951.873, 375.644 952.692 C 417.008 954.183, 447.481 944.211, 492.500 914.454 C 531.332 888.786, 568.099 852.569, 604.122 804.500 C 617.964 786.030, 625.311 775.694, 633.500 763.170 C 637.215 757.488, 640.760 752.707, 641.377 752.546 C 641.995 752.384, 649.400 750.822, 657.833 749.075 C 698.853 740.577, 739.201 724.735, 781 700.716 C 838.274 667.804, 893.389 615.919, 912.176 577.228 C 921.569 557.883, 921.323 543.270, 911.436 533.384 C 904.209 526.156, 894.677 524.576, 877 527.677" fill="white"/>
      <path d="M 880.500 533.658 C 856.363 537.448, 824.292 556.231, 786 589.003 C 770.336 602.409, 735.399 636.864, 717.051 657 C 710.786 663.875, 703.956 671.366, 701.872 673.647 C 687.890 688.950, 645.248 742.582, 646.259 743.592 C 646.985 744.319, 659.112 742.244, 671 739.359 C 739.557 722.726, 815.894 678.169, 868 624.373 C 897.296 594.128, 912 570.230, 912 552.863 C 912 539.546, 905.943 533.789, 891.524 533.403 C 887.111 533.284, 882.150 533.399, 880.500 533.658" fill="white"/>
      <path d="M 828 761.504 C 779.965 770.952, 708.687 830.036, 681.723 882.758 C 674.100 897.663, 672.500 903.691, 672.500 917.500 C 672.500 931.457, 673.794 934.961, 681.765 942.600 C 689.025 949.555, 695.639 952.319, 706.240 952.826 C 731.594 954.038, 759.172 942.953, 789.997 919.160 C 800.790 910.829, 832.716 878.944, 844.899 864.328 C 854.212 853.156, 854.212 853.156, 858.970 856.574 C 873.322 866.885, 890.263 867.693, 907.500 858.889 C 914.481 855.324, 928.210 845.977, 928.695 844.460 C 928.877 843.887, 928.415 842.583, 927.668 841.561 C 926.378 839.796, 926.036 839.906, 920.904 843.742 C 913.676 849.146, 904.731 853.513, 895.849 855.975 C 887.062 858.410, 881.190 858.530, 873.932 856.424 C 868.452 854.834, 858 849.204, 858 847.842 C 858 847.437, 860.147 844.270, 862.770 840.803 C 880.535 817.330, 888.474 782.832, 878.285 773.389 C 875.571 770.873, 868.975 770.097, 866.048 771.949 C 864.968 772.632, 864.010 772.008, 862.318 769.518 C 857.168 761.939, 842.822 758.588, 828 761.504" fill="white"/>
      <path d="M 833.976 769.265 C 820.543 774.926, 804.660 788.338, 778.038 816.500 C 759.246 836.378, 711.703 890.746, 703.217 902.060 C 697.730 909.375, 692.950 920.084, 692.282 926.558 C 691.827 930.963, 692.171 932.543, 694.522 936.864 C 698.393 943.975, 703.330 946.301, 714.447 946.250 C 748.812 946.092, 798.762 910.999, 840.565 857.644 C 848.195 847.907, 848.195 847.907, 846.122 842.703 C 841.713 831.635, 840.385 819.455, 842.367 808.287 C 844.025 798.947, 849.105 787.535, 854.291 781.499 C 858.228 776.917, 858.050 775.243, 853.126 770.584 C 848.836 766.525, 841.651 766.030, 833.976 769.265" fill="white"/>
    </mask>
    <mask id="m2" maskUnits="userSpaceOnUse" x="0" y="0" width="2048" height="2048">
      <rect width="2048" height="2048" fill="black"/>
    </mask>
    <mask id="m3" maskUnits="userSpaceOnUse" x="0" y="0" width="2048" height="2048">
      <rect width="2048" height="2048" fill="black"/>
      <path d="M 1263.500 538.928 C 1223.918 553.036, 1125.834 641.362, 1013.562 764 C 1009.390 768.557, 986.777 794.491, 977.376 805.500 C 956.072 830.448, 935.230 858.653, 929.063 870.880 C 924.620 879.690, 920.415 892.605, 918.491 903.353 C 914.342 926.528, 920.353 942.583, 935.911 949.879 C 941.144 952.333, 942.392 952.495, 955.500 952.417 C 967.568 952.346, 970.673 951.977, 978 949.741 C 998.674 943.433, 1017.656 931.714, 1044.389 908.757 C 1055.938 898.838, 1061.185 893.901, 1081.628 873.714 C 1099.757 855.813, 1099.757 855.813, 1105.628 860.284 C 1112.933 865.845, 1116.367 867, 1125.604 867 C 1137.160 867, 1144.056 864.076, 1160.750 852.099 C 1166.532 847.950, 1167 847.330, 1167 843.816 C 1167 840.018, 1167 840.018, 1158.250 846.533 C 1145.107 856.319, 1138.236 859.423, 1128.747 859.857 C 1123.297 860.107, 1119.378 859.703, 1115.725 858.517 C 1110.074 856.682, 1103.997 852.629, 1104.005 850.699 C 1104.008 850.040, 1109.979 841.753, 1117.273 832.284 C 1131.948 813.236, 1136.025 806.989, 1139.665 797.978 C 1142.340 791.354, 1143.291 782.946, 1141.811 779 C 1138.725 770.775, 1130.991 768.674, 1122.946 773.873 C 1112.219 780.806, 1102.959 794.533, 1096.215 813.500 C 1093.345 821.572, 1092.146 837.600, 1093.859 845 C 1094.670 848.505, 1094.600 849.942, 1093.543 851.500 C 1092.796 852.600, 1085.055 860.733, 1076.342 869.574 C 1029.607 916.992, 1002.177 937.145, 975.022 944.014 C 958.205 948.269, 940.800 946.575, 934.576 940.080 C 928.553 933.793, 930.514 920.230, 939.721 904.487 C 954.093 879.917, 988.030 837.722, 1041.454 778 C 1054.425 763.500, 1054.425 763.500, 1065.962 758.555 C 1082.750 751.360, 1124.286 730.395, 1140.500 720.933 C 1210.635 680.003, 1263.285 632.168, 1283.105 591.372 C 1288.560 580.142, 1291.886 566.552, 1291.537 556.922 C 1291.181 547.127, 1288.400 541.839, 1281.800 538.405 C 1278.155 536.509, 1269.602 536.753, 1263.500 538.928" fill="white"/>
      <path d="M 1269.500 543.932 C 1264.924 545.071, 1255.284 550.263, 1247.500 555.781 C 1218.938 576.030, 1160.634 636.316, 1093.515 715 C 1085.305 724.625, 1074.807 736.914, 1070.187 742.310 C 1065.566 747.705, 1062.043 752.376, 1062.356 752.689 C 1063.016 753.349, 1095.493 737.310, 1114.441 726.966 C 1144.828 710.379, 1177.927 689.241, 1200.921 671.737 C 1247.473 636.302, 1275.801 601.814, 1282.992 571.818 C 1286.231 558.308, 1285.176 547.738, 1280.335 545.199 C 1277.416 543.668, 1272.751 543.123, 1269.500 543.932" fill="white"/>
      <path d="M 1305.500 765.432 C 1246.057 779.114, 1165.579 851.436, 1149.391 905.718 C 1146.242 916.277, 1145.729 929.331, 1148.235 935.140 C 1150.754 940.977, 1156.456 946.476, 1163.238 949.608 C 1169.338 952.425, 1169.913 952.499, 1185.500 952.448 C 1204.294 952.388, 1214.915 950.219, 1234.713 942.402 C 1271.887 927.725, 1310.063 903.031, 1358 862.655 C 1363.225 858.254, 1367.570 854.619, 1367.656 854.577 C 1368.142 854.338, 1368.731 848, 1368.268 848 C 1367.961 848, 1361.137 853.326, 1353.105 859.836 C 1291.895 909.439, 1245.591 936.466, 1208.729 944.105 C 1190.246 947.934, 1171.508 946.533, 1166.449 940.943 C 1165.369 939.751, 1164.484 936.818, 1164.212 933.538 C 1163.835 928.996, 1164.262 927.038, 1166.819 921.574 C 1171.694 911.156, 1180.225 899.667, 1196.390 881.750 C 1203.270 874.124, 1203.459 874, 1208.198 874 C 1214.427 874, 1231.060 871.542, 1242.500 868.931 C 1275.578 861.380, 1303.300 848.754, 1324 831.811 C 1333.517 824.021, 1339.267 817.228, 1343.308 809 C 1346.314 802.879, 1346.500 801.855, 1346.500 791.425 C 1346.500 780.844, 1346.365 780.132, 1343.474 775.452 C 1341.607 772.430, 1338.591 769.405, 1335.601 767.557 C 1331.214 764.844, 1329.844 764.537, 1321.128 764.306 C 1315.543 764.158, 1308.980 764.631, 1305.500 765.432" fill="white"/>
      <path d="M 1316 771.088 C 1304.166 773.425, 1289.416 783.716, 1268.136 804.482 C 1254.821 817.476, 1214.413 860.538, 1211.111 865.252 C 1209.665 867.316, 1209.692 867.321, 1219.580 866.684 C 1250.746 864.679, 1288.473 846.099, 1312.531 820.909 C 1321.823 811.180, 1325.947 805.475, 1330.093 796.614 C 1338.236 779.213, 1332.006 767.929, 1316 771.088" fill="white"/>
    </mask>
    <mask id="m4" maskUnits="userSpaceOnUse" x="0" y="0" width="2048" height="2048">
      <rect width="2048" height="2048" fill="black"/>
      <path d="M 1526.428 768.409 C 1517.282 771.273, 1502.354 784.298, 1494.235 796.500 C 1489.181 804.096, 1487.655 807.159, 1485.509 814.014 C 1483.784 819.528, 1483.784 819.528, 1469.642 824.351 C 1445.145 832.706, 1429.275 840.265, 1417.223 849.317 C 1411.466 853.642, 1409.171 853.598, 1413.142 849.240 C 1425.904 835.231, 1447.870 811.078, 1457.468 800.500 C 1463.956 793.350, 1471.567 785.011, 1474.382 781.969 C 1485.792 769.640, 1486.975 771, 1464.836 771 C 1445.323 771, 1445.323 771, 1432.412 785.741 C 1425.310 793.849, 1412.955 807.911, 1404.955 816.991 C 1396.956 826.071, 1378.555 847, 1364.064 863.500 C 1349.574 880, 1328.034 904.525, 1316.199 918 C 1294.679 942.500, 1294.679 942.500, 1312.590 942.784 C 1333.279 943.111, 1329.216 945.628, 1352.618 917.992 C 1371.343 895.879, 1379.891 886.595, 1389.800 877.611 C 1408.248 860.883, 1422.937 850.632, 1441.500 841.529 C 1451.894 836.432, 1477.694 827, 1481.241 827 C 1482.437 827, 1483.050 828.280, 1483.517 831.750 C 1485.950 849.812, 1493.368 859.415, 1506.864 861.974 C 1513.313 863.197, 1520.018 861.912, 1528.822 857.765 C 1535.408 854.663, 1536.981 852.887, 1535.126 850.651 C 1534.232 849.574, 1532.969 849.840, 1528.333 852.081 C 1521.432 855.416, 1511.264 856.687, 1504.990 854.997 C 1496.961 852.835, 1491.527 843.667, 1490.843 831.126 C 1490.500 824.828, 1490.500 824.828, 1496.500 822.552 C 1517.925 814.427, 1538.492 798.946, 1544.008 786.793 C 1548.224 777.504, 1545.573 769.836, 1537.500 767.972 C 1532.449 766.805, 1531.420 766.846, 1526.428 768.409" fill="white"/>
    </mask>
    <mask id="m5" maskUnits="userSpaceOnUse" x="0" y="0" width="2048" height="2048">
      <rect width="2048" height="2048" fill="black"/>
      <path d="M 1614.751 784.808 C 1608.290 792.338, 1601.760 799.850, 1600.241 801.500 C 1598.722 803.150, 1591.637 811.250, 1584.495 819.500 C 1577.354 827.750, 1562.026 845.313, 1550.433 858.528 C 1516.305 897.434, 1510.362 905.936, 1507.928 919.331 C 1505.604 932.123, 1510.323 945.148, 1519.023 949.953 C 1525.516 953.539, 1538.059 954.023, 1547 951.031 C 1567.754 944.088, 1602.652 919.684, 1653.500 876.556 C 1660.650 870.492, 1668.300 863.901, 1670.500 861.910 C 1672.700 859.919, 1677.051 856.087, 1680.168 853.395 C 1686.228 848.162, 1686.853 846.953, 1684.506 845.005 C 1682.842 843.624, 1684.201 842.603, 1650.500 870.533 C 1585.668 924.265, 1567.432 937.629, 1550.809 943.593 C 1539.309 947.719, 1527.451 947.226, 1523.250 942.448 C 1519.087 937.712, 1520.728 933.545, 1532.482 919 C 1538.383 911.699, 1571.532 873.927, 1578.384 866.696 C 1579.008 866.038, 1586.701 857.400, 1595.480 847.500 C 1604.259 837.600, 1611.689 829.275, 1611.991 829 C 1612.292 828.725, 1619.730 820.423, 1628.520 810.550 C 1637.309 800.678, 1648.662 787.935, 1653.750 782.232 C 1658.838 776.530, 1663 771.670, 1663 771.432 C 1663 771.194, 1654.787 771.026, 1644.750 771.058 C 1626.500 771.115, 1626.500 771.115, 1614.751 784.808" fill="white"/>
    </mask>
    <mask id="m6" maskUnits="userSpaceOnUse" x="0" y="0" width="2048" height="2048">
      <rect width="2048" height="2048" fill="black"/>
      <path d="M 1713.685 653.017 C 1709.253 654.347, 1704.179 658.738, 1701.793 663.308 C 1693.698 678.817, 1707.909 697.100, 1724.893 693.026 C 1737.486 690.005, 1744.445 676.035, 1739.104 664.500 C 1734.590 654.749, 1723.941 649.938, 1713.685 653.017" fill="white"/>
    </mask>
    <mask id="m7" maskUnits="userSpaceOnUse" x="0" y="0" width="2048" height="2048">
      <rect width="2048" height="2048" fill="black"/>
      <path d="M 680.500 1061.503 C 628.463 1068.212, 581.834 1082.522, 534.244 1106.387 C 460.316 1143.461, 404.813 1199.688, 396.428 1246 C 391.048 1275.714, 401.059 1301.072, 423.827 1315.399 C 430.363 1319.512, 442.539 1324.082, 450.970 1325.587 C 465.361 1328.154, 494.550 1327.054, 509.500 1323.380 C 528.499 1318.710, 552.825 1308.308, 569.052 1297.914 C 595.488 1280.980, 619.063 1257.020, 639.320 1226.500 C 656.008 1201.356, 667.968 1171.015, 667.994 1153.750 C 668 1150.261, 667.794 1150, 665.045 1150 C 662.404 1150, 662.027 1150.397, 661.494 1153.750 C 658.692 1171.360, 645.779 1195.743, 626.672 1219.500 C 597.535 1255.729, 563.079 1284.848, 528.500 1302.466 C 503.043 1315.437, 485.818 1320.234, 464.500 1320.291 C 443.460 1320.348, 430.569 1315.637, 418.492 1303.479 C 406.202 1291.108, 401.429 1277.852, 402.296 1258.500 C 402.887 1245.290, 404.611 1238.485, 410.446 1226.316 C 418.856 1208.778, 430.179 1193.853, 448.621 1176 C 463.022 1162.059, 473.358 1153.683, 490.500 1142.066 C 543.426 1106.196, 608.396 1080.360, 671.500 1070.089 C 700.482 1065.372, 734.336 1064.357, 759 1067.466 C 760.925 1067.709, 765.200 1068.201, 768.500 1068.561 C 784.823 1070.338, 801.833 1075.518, 815.500 1082.872 C 820.450 1085.536, 824.449 1088.112, 824.387 1088.597 C 824.325 1089.081, 820.725 1091.519, 816.387 1094.014 C 786.936 1110.954, 761.314 1133.490, 730.109 1169.901 C 700.890 1203.995, 676.541 1236.766, 628.991 1306 C 576.994 1381.707, 544.789 1419.078, 507.356 1447.145 C 482.415 1465.846, 461.862 1474.823, 436.797 1477.966 C 412.370 1481.029, 387.791 1476.429, 377.800 1466.924 C 371.598 1461.025, 372.484 1459.434, 384.088 1455.637 C 400.339 1450.320, 405.007 1445.775, 404.994 1435.282 C 404.985 1427.058, 403.266 1422.948, 397.475 1417.299 C 386.407 1406.502, 372.424 1406.457, 358.803 1417.175 C 356.770 1418.775, 353.908 1422.532, 352.444 1425.524 C 347.722 1435.177, 349.378 1450.469, 356.224 1460.418 C 359.992 1465.896, 368.160 1472.837, 375.176 1476.523 C 402.827 1491.053, 454.727 1488.226, 497.593 1469.855 C 567.841 1439.748, 624.203 1380.502, 711.028 1245.500 C 766.490 1159.264, 794.585 1123.272, 822.981 1102.077 C 828.196 1098.185, 832.944 1095, 833.532 1095 C 835.649 1095, 846.494 1105.655, 852.175 1113.317 C 867.967 1134.616, 874.184 1161.391, 869.508 1187.965 C 866.240 1206.531, 859.889 1219.439, 845.629 1236.500 C 823.279 1263.238, 789.648 1280.310, 752.136 1283.960 C 744.443 1284.708, 717.592 1283.899, 711.724 1282.741 C 711.015 1282.602, 710.372 1283.815, 710.196 1285.623 C 709.933 1288.328, 710.267 1288.834, 712.696 1289.398 C 718.647 1290.782, 755.570 1291.273, 765.514 1290.100 C 812.049 1284.612, 849.736 1265.504, 872.117 1236.051 C 878.923 1227.094, 886.488 1211.337, 889.186 1200.500 C 892.374 1187.696, 892.389 1165.340, 889.220 1152.699 C 884.050 1132.078, 870.295 1112.053, 850.196 1095.884 C 845.963 1092.479, 842.500 1089.200, 842.500 1088.597 C 842.500 1087.097, 860.794 1078.046, 870 1074.990 C 877.145 1072.618, 877.490 1072.364, 877.283 1069.616 C 877.164 1068.030, 876.850 1066.517, 876.586 1066.253 C 875.394 1065.061, 860.284 1070.802, 847.798 1077.191 C 834.096 1084.202, 834.096 1084.202, 828.794 1081.168 C 814.223 1072.832, 794.738 1066.252, 773 1062.330 C 759.802 1059.948, 755.805 1059.689, 728.500 1059.447 C 701.955 1059.212, 696.427 1059.449, 680.500 1061.503" fill="white"/>
    </mask>
    <mask id="m8" maskUnits="userSpaceOnUse" x="0" y="0" width="2048" height="2048">
      <rect width="2048" height="2048" fill="black"/>
      <path d="M 918.478 1297.983 C 907.206 1300.531, 892.756 1306.123, 877 1314.031 C 812.503 1346.406, 764.220 1397.461, 758.904 1438.907 C 756.128 1460.561, 762.783 1475.420, 778.500 1482.659 C 783.921 1485.156, 785.561 1485.419, 795.500 1485.389 C 805.223 1485.359, 807.603 1484.979, 816 1482.120 C 834.749 1475.737, 850.885 1465.447, 873.854 1445.229 C 878.449 1441.184, 882.353 1438.020, 882.530 1438.197 C 882.707 1438.374, 881.979 1441.103, 880.913 1444.262 C 878.310 1451.973, 877.386 1463.565, 878.975 1468.583 C 880.893 1474.643, 884.917 1479.867, 889.926 1482.802 C 894.032 1485.209, 895.449 1485.474, 903.996 1485.431 C 915.855 1485.373, 926.104 1482.271, 943.484 1473.479 C 976.992 1456.529, 1026.174 1419.257, 1058.844 1386.054 C 1062.235 1382.609, 1062.235 1382.609, 1060.002 1380.801 C 1057.781 1379.002, 1057.717 1379.041, 1047.787 1388.246 C 1012.847 1420.635, 967.882 1453.170, 935.283 1469.649 C 917.798 1478.488, 905.243 1481.011, 897.984 1477.143 C 893.808 1474.918, 892.035 1471.818, 892.015 1466.710 C 891.994 1461.421, 894.920 1456.239, 903.291 1446.737 C 913.853 1434.747, 961.122 1382.807, 969.930 1373.512 C 990.570 1351.733, 1001.066 1340.868, 1018.967 1322.750 C 1038.481 1303, 1038.481 1303, 1018.331 1303 C 998.181 1303, 998.181 1303, 982.457 1319.250 C 967.240 1334.977, 966.760 1335.371, 967.557 1331.500 C 968.553 1326.659, 968.607 1317.511, 967.661 1313.768 C 966.645 1309.747, 961.351 1304.212, 955.859 1301.429 C 945.090 1295.972, 932.503 1294.811, 918.478 1297.983" fill="white"/>
      <path d="M 930 1303.691 C 915.519 1306.115, 903.012 1314.236, 875.864 1338.842 C 846.587 1365.376, 789.762 1424.592, 780.991 1437.706 C 775.875 1445.354, 772 1455.677, 772 1461.655 C 772 1468.855, 777.261 1475.069, 785.432 1477.521 C 811.735 1485.412, 855.290 1458.919, 909.027 1402.343 C 939.738 1370.010, 962 1336.526, 962 1322.666 C 962 1315.041, 954.820 1306.761, 945.888 1304.085 C 942.362 1303.028, 935.043 1302.847, 930 1303.691" fill="white"/>
    </mask>
    <mask id="m9" maskUnits="userSpaceOnUse" x="0" y="0" width="2048" height="2048">
      <rect width="2048" height="2048" fill="black"/>
      <path d="M 1222.293 1301.473 C 1207.571 1307.874, 1189.964 1327.778, 1183.950 1344.816 C 1181.347 1352.190, 1181.347 1352.190, 1171.424 1355.468 C 1146.213 1363.796, 1132.274 1370.100, 1118.750 1379.290 C 1113.388 1382.934, 1109 1385.432, 1109 1384.842 C 1109 1384.252, 1115.653 1376.508, 1123.785 1367.634 C 1131.916 1358.760, 1148.004 1341.211, 1159.535 1328.636 C 1171.066 1316.061, 1180.860 1305.148, 1181.300 1304.386 C 1181.970 1303.225, 1178.952 1303, 1162.697 1303 C 1143.294 1303, 1143.294 1303, 1137.897 1309.352 C 1134.929 1312.846, 1118.116 1332.084, 1100.535 1352.102 C 1082.954 1372.121, 1058.894 1399.525, 1047.068 1413 C 1035.242 1426.475, 1018.840 1445.150, 1010.619 1454.500 C 1002.397 1463.850, 995 1472.287, 994.180 1473.250 C 992.769 1474.907, 993.666 1475, 1011.113 1475 C 1029.535 1475, 1029.535 1475, 1047.680 1453.750 C 1070.475 1427.055, 1079.081 1417.798, 1090.865 1407.305 C 1109.449 1390.755, 1126.333 1379.654, 1146.470 1370.744 C 1156.645 1366.242, 1179.816 1358.483, 1180.637 1359.304 C 1180.832 1359.498, 1181.206 1361.778, 1181.468 1364.369 C 1183.293 1382.404, 1192.251 1393.241, 1206.553 1394.718 C 1212.988 1395.382, 1219.398 1393.893, 1227.750 1389.793 C 1234.007 1386.722, 1234.765 1385.758, 1233.053 1383.052 C 1232.282 1381.833, 1231.258 1382.048, 1226.588 1384.411 C 1219.561 1387.966, 1206.622 1389.133, 1200.882 1386.728 C 1194.305 1383.973, 1189.843 1375.573, 1188.459 1363.341 C 1187.781 1357.348, 1187.781 1357.348, 1194.141 1355.043 C 1209.521 1349.470, 1227.397 1338.108, 1235.580 1328.705 C 1242.564 1320.680, 1245.808 1310.248, 1242.970 1304.945 C 1240.490 1300.310, 1229.291 1298.430, 1222.293 1301.473" fill="white"/>
    </mask>
    <mask id="m10" maskUnits="userSpaceOnUse" x="0" y="0" width="2048" height="2048">
      <rect width="2048" height="2048" fill="black"/>
      <path d="M 1433.828 1185.833 C 1429.904 1190.351, 1390.391 1233.381, 1374.675 1250.250 C 1363.728 1262, 1363.728 1262, 1344.437 1262 C 1325.145 1262, 1325.145 1262, 1322.600 1265.250 C 1320.056 1268.500, 1320.056 1268.500, 1338.612 1268.772 C 1359.861 1269.084, 1359.565 1266.857, 1341.035 1287 C 1285.582 1347.279, 1244.094 1392.706, 1237.297 1400.585 C 1207.670 1434.930, 1198.478 1460.711, 1209.877 1477.495 C 1214.024 1483.602, 1218.141 1485.511, 1227 1485.437 C 1246.015 1485.278, 1276.114 1468.309, 1319.897 1433.064 C 1325.065 1428.904, 1330.690 1424.389, 1332.397 1423.031 C 1343.032 1414.570, 1379.015 1382.931, 1378.968 1382.081 C 1378.951 1381.762, 1378.307 1380.670, 1377.538 1379.655 C 1376.231 1377.929, 1375.480 1378.401, 1366.007 1386.897 C 1322.242 1426.146, 1277.472 1459.827, 1253.439 1471.582 C 1227.569 1484.236, 1207.494 1479.164, 1218.789 1462.827 C 1221.772 1458.513, 1235.122 1442.989, 1244.010 1433.500 C 1246.586 1430.750, 1254.460 1422.200, 1261.509 1414.500 C 1268.557 1406.800, 1276.623 1398.025, 1279.432 1395 C 1282.241 1391.975, 1292.161 1381.175, 1301.476 1371 C 1310.791 1360.825, 1321.584 1349.125, 1325.460 1345 C 1329.336 1340.875, 1337.230 1332.338, 1343.004 1326.029 C 1360.396 1307.022, 1366.144 1300.787, 1372.072 1294.500 C 1375.184 1291.200, 1381.708 1284.112, 1386.570 1278.750 C 1395.411 1269, 1395.411 1269, 1414.490 1269 C 1433.569 1269, 1433.569 1269, 1435.284 1266.096 C 1436.228 1264.498, 1437 1262.934, 1437 1262.619 C 1437 1262.304, 1429.166 1261.923, 1419.591 1261.773 C 1402.181 1261.500, 1402.181 1261.500, 1408.341 1254.918 C 1413.138 1249.792, 1443.650 1216.605, 1472.853 1184.750 C 1475.374 1182, 1475.374 1182, 1456.265 1182 C 1437.156 1182, 1437.156 1182, 1433.828 1185.833" fill="white"/>
      <path d="M 1405 1498.620 C 1304.001 1534.578, 1254.819 1559.216, 1228.776 1586.900 C 1216.454 1599.998, 1210.886 1613.999, 1213.941 1624.199 C 1215.580 1629.667, 1222.119 1636.494, 1227.829 1638.697 C 1235.160 1641.527, 1249.370 1641.059, 1259.274 1637.663 C 1285.560 1628.651, 1314.188 1607.457, 1357.351 1565.054 C 1379.698 1543.102, 1423 1496.158, 1423 1493.885 C 1423 1492.393, 1421.047 1492.907, 1405 1498.620" fill="white"/>
    </mask>
    <mask id="m11" maskUnits="userSpaceOnUse" x="0" y="0" width="2048" height="2048">
      <rect width="2048" height="2048" fill="black"/>
      <path d="M 1458.991 1305.750 C 1457.806 1307.263, 1455.176 1310.300, 1453.146 1312.500 C 1441.692 1324.914, 1380.596 1395.418, 1375.707 1401.863 C 1368.752 1411.033, 1361.601 1425.099, 1359.387 1433.969 C 1357.218 1442.657, 1357.863 1454.967, 1360.783 1460.624 C 1363.185 1465.277, 1367.328 1469.091, 1373.384 1472.227 C 1379.636 1475.464, 1392.295 1475.835, 1402.882 1473.090 C 1425.415 1467.250, 1438.334 1460.685, 1461.985 1443.059 C 1475.629 1432.890, 1475.988 1432.655, 1476.719 1433.386 C 1477.264 1433.931, 1471.484 1440.433, 1445.951 1468 C 1439.583 1474.875, 1433.501 1481.477, 1432.435 1482.672 C 1431.152 1484.109, 1423.053 1487.370, 1408.498 1492.307 C 1318.934 1522.690, 1267.775 1546.597, 1234.187 1573.763 C 1222.374 1583.318, 1214.594 1592.468, 1210.178 1602 C 1207.122 1608.598, 1206.705 1610.462, 1206.714 1617.500 C 1206.727 1627.514, 1209.168 1633.167, 1216.212 1639.501 C 1224.628 1647.067, 1236.562 1649.324, 1253.498 1646.553 C 1287.331 1641.016, 1326.554 1618.677, 1375.500 1577.068 C 1398.238 1557.737, 1435.251 1521.334, 1464 1490.025 C 1477.291 1475.550, 1477.291 1475.550, 1485.134 1473.286 C 1498.112 1469.539, 1512.465 1463.427, 1532.538 1453.102 C 1569.476 1434.100, 1598.305 1415.356, 1637.757 1384.693 C 1645.933 1378.338, 1647.784 1376.445, 1646.884 1375.360 C 1646.263 1374.612, 1645.350 1374, 1644.855 1374 C 1644.359 1374, 1634.090 1381.413, 1622.034 1390.474 C 1587.115 1416.719, 1564.335 1431.261, 1532.500 1447.634 C 1517.372 1455.415, 1496.182 1464.690, 1487.250 1467.442 C 1483.711 1468.532, 1484.496 1466.056, 1489.292 1461 C 1493.277 1456.799, 1516.956 1430.652, 1540.875 1404.043 C 1557.878 1385.127, 1567.171 1374.851, 1573.019 1368.500 C 1576.057 1365.200, 1582.358 1358.225, 1587.021 1353 C 1591.683 1347.775, 1596.078 1342.889, 1596.785 1342.142 C 1602.828 1335.768, 1630.573 1304.607, 1630.833 1303.903 C 1631.024 1303.386, 1623.278 1303, 1612.719 1303 C 1594.271 1303, 1594.271 1303, 1584.397 1314.250 C 1502.601 1407.446, 1450.513 1452.877, 1411.721 1464.859 C 1401.884 1467.897, 1390.432 1469.220, 1384.198 1468.038 C 1374.479 1466.194, 1371.532 1463.270, 1371.643 1455.578 C 1371.742 1448.736, 1374.996 1441.737, 1382.745 1431.698 C 1388.998 1423.597, 1389.895 1422.594, 1411.539 1399.500 C 1418.755 1391.800, 1428.423 1381.450, 1433.024 1376.500 C 1449.461 1358.812, 1477.681 1328.711, 1493.250 1312.258 C 1497.513 1307.754, 1501 1303.828, 1501 1303.534 C 1501 1303.240, 1492.033 1303, 1481.073 1303 C 1461.145 1303, 1461.145 1303, 1458.991 1305.750" fill="white"/>
    </mask>
  </defs>
  <image href="brand/logo-wide.png" x="0" y="0" width="2048" height="2048" mask="url(#m0)" class="letter" style="animation-delay:0.50s"/>
  <image href="brand/logo-wide.png" x="0" y="0" width="2048" height="2048" mask="url(#m1)" class="letter" style="animation-delay:0.92s"/>
  <image href="brand/logo-wide.png" x="0" y="0" width="2048" height="2048" mask="url(#m2)" class="letter" style="animation-delay:1.34s"/>
  <image href="brand/logo-wide.png" x="0" y="0" width="2048" height="2048" mask="url(#m3)" class="letter" style="animation-delay:1.76s"/>
  <image href="brand/logo-wide.png" x="0" y="0" width="2048" height="2048" mask="url(#m4)" class="letter" style="animation-delay:2.18s"/>
  <image href="brand/logo-wide.png" x="0" y="0" width="2048" height="2048" mask="url(#m5)" class="letter" style="animation-delay:2.60s"/>
  <image href="brand/logo-wide.png" x="0" y="0" width="2048" height="2048" mask="url(#m6)" class="letter" style="animation-delay:3.02s"/>
  <image href="brand/logo-wide.png" x="0" y="0" width="2048" height="2048" mask="url(#m7)" class="letter" style="animation-delay:3.44s"/>
  <image href="brand/logo-wide.png" x="0" y="0" width="2048" height="2048" mask="url(#m8)" class="letter" style="animation-delay:3.86s"/>
  <image href="brand/logo-wide.png" x="0" y="0" width="2048" height="2048" mask="url(#m9)" class="letter" style="animation-delay:4.28s"/>
  <image href="brand/logo-wide.png" x="0" y="0" width="2048" height="2048" mask="url(#m10)" class="letter" style="animation-delay:4.70s"/>
  <image href="brand/logo-wide.png" x="0" y="0" width="2048" height="2048" mask="url(#m11)" class="letter" style="animation-delay:5.12s"/>
</svg>